Results
version=1
nRows=4
nColumns=213
inDegrees=yes
endheader
time	platform_rx	platform_ry	platform_rz	platform_ty	pelvis_tilt	pelvis_list	pelvis_rotation	pelvis_tx	pelvis_ty	pelvis_tz	hip_flexion_r	hip_adduction_r	hip_rotation_r	knee_angle_r	knee_angle_r_beta	ankle_angle_r	subtalar_angle_r	mtp_angle_r	hip_flexion_l	hip_adduction_l	hip_rotation_l	knee_angle_l	knee_angle_l_beta	ankle_angle_l	subtalar_angle_l	mtp_angle_l	lumbar_extension	lumbar_bending	lumbar_rotation	arm_flex_r	arm_add_r	arm_rot_r	elbow_flex_r	pro_sup_r	wrist_flex_r	wrist_dev_r	arm_flex_l	arm_add_l	arm_rot_l	elbow_flex_l	pro_sup_l	wrist_flex_l	wrist_dev_l	platform_rx_u	platform_ry_u	platform_rz_u	platform_ty_u	pelvis_tilt_u	pelvis_list_u	pelvis_rotation_u	pelvis_tx_u	pelvis_ty_u	pelvis_tz_u	hip_flexion_r_u	hip_adduction_r_u	hip_rotation_r_u	knee_angle_r_u	knee_angle_r_beta_u	ankle_angle_r_u	subtalar_angle_r_u	mtp_angle_r_u	hip_flexion_l_u	hip_adduction_l_u	hip_rotation_l_u	knee_angle_l_u	knee_angle_l_beta_u	ankle_angle_l_u	subtalar_angle_l_u	mtp_angle_l_u	lumbar_extension_u	lumbar_bending_u	lumbar_rotation_u	arm_flex_r_u	arm_add_r_u	arm_rot_r_u	elbow_flex_r_u	pro_sup_r_u	wrist_flex_r_u	wrist_dev_r_u	arm_flex_l_u	arm_add_l_u	arm_rot_l_u	elbow_flex_l_u	pro_sup_l_u	wrist_flex_l_u	wrist_dev_l_u	addbrev_r.activation	addlong_r.activation	addlong_r.fiber_length	addmagDist_r.activation	addmagIsch_r.activation	addmagIsch_r.fiber_length	addmagMid_r.activation	addmagProx_r.activation	bflh_r.activation	bflh_r.fiber_length	bfsh_r.activation	edl_r.activation	edl_r.fiber_length	ehl_r.activation	ehl_r.fiber_length	fdl_r.activation	fdl_r.fiber_length	fhl_r.activation	fhl_r.fiber_length	gaslat_r.activation	gaslat_r.fiber_length	gasmed_r.activation	gasmed_r.fiber_length	glmax1_r.activation	glmax2_r.activation	glmax3_r.activation	glmed1_r.activation	glmed2_r.activation	glmed3_r.activation	glmin1_r.activation	glmin2_r.activation	glmin3_r.activation	glmin3_r.fiber_length	grac_r.activation	iliacus_r.activation	perbrev_r.activation	perbrev_r.fiber_length	perlong_r.activation	perlong_r.fiber_length	piri_r.activation	piri_r.fiber_length	psoas_r.activation	recfem_r.activation	recfem_r.fiber_length	sart_r.activation	semimem_r.activation	semimem_r.fiber_length	semiten_r.activation	semiten_r.fiber_length	soleus_r.activation	soleus_r.fiber_length	tfl_r.activation	tfl_r.fiber_length	tibant_r.activation	tibant_r.fiber_length	tibpost_r.activation	tibpost_r.fiber_length	vasint_r.activation	vasint_r.fiber_length	vaslat_r.activation	vaslat_r.fiber_length	vasmed_r.activation	vasmed_r.fiber_length	addbrev_l.activation	addlong_l.activation	addlong_l.fiber_length	addmagDist_l.activation	addmagIsch_l.activation	addmagIsch_l.fiber_length	addmagMid_l.activation	addmagProx_l.activation	bflh_l.activation	bflh_l.fiber_length	bfsh_l.activation	edl_l.activation	edl_l.fiber_length	ehl_l.activation	ehl_l.fiber_length	fdl_l.activation	fdl_l.fiber_length	fhl_l.activation	fhl_l.fiber_length	gaslat_l.activation	gaslat_l.fiber_length	gasmed_l.activation	gasmed_l.fiber_length	glmax1_l.activation	glmax2_l.activation	glmax3_l.activation	glmed1_l.activation	glmed2_l.activation	glmed3_l.activation	glmin1_l.activation	glmin2_l.activation	glmin3_l.activation	glmin3_l.fiber_length	grac_l.activation	iliacus_l.activation	perbrev_l.activation	perbrev_l.fiber_length	perlong_l.activation	perlong_l.fiber_length	piri_l.activation	piri_l.fiber_length	psoas_l.activation	recfem_l.activation	recfem_l.fiber_length	sart_l.activation	semimem_l.activation	semimem_l.fiber_length	semiten_l.activation	semiten_l.fiber_length	soleus_l.activation	soleus_l.fiber_length	tfl_l.activation	tfl_l.fiber_length	tibant_l.activation	tibant_l.fiber_length	tibpost_l.activation	tibpost_l.fiber_length	vasint_l.activation	vasint_l.fiber_length	vaslat_l.activation	vaslat_l.fiber_length	vasmed_l.activation	vasmed_l.fiber_length
      0.00344867	     20.00000000	      0.00000000	     -0.00000000	      0.25000000	    -15.19897900	     -0.00154771	     -0.00134790	      0.06401429	      0.82013795	      0.00000540	     49.92182727	    -13.31990385	    -10.01309671	     56.46728652	     56.46728652	     19.35455369	     -0.19731590	      0.00000000	     49.92139739	    -13.32917778	    -10.00889931	     56.46817751	     56.46817751	     19.39806847	     -0.00000000	      0.00000000	     -0.11865795	      0.00144979	      0.00134466	     56.02205185	     -0.00098024	     89.88596008	      0.10987464	      0.10625811	      0.00000000	     -0.00000000	     56.02212715	     -0.00120251	     89.88625777	      0.11001081	      0.10629298	      0.00000000	     -0.00000000	      0.00000000	      0.00000000	     -0.00000000	     -0.00000000	     56.15435455	     -0.85155211	     -0.73456072	      0.00868628	      0.07967094	      0.00298425	    -68.75833195	      0.02121861	     -7.61566522	    -27.69238463	    -27.69238463	   -470.18474997	   -109.98493654	      0.00000000	    -68.98835471	     -5.09923645	     -5.29684043	    -27.19347260	    -27.19347260	   -446.19902244	      0.00000000	      0.00000000	    -68.61463389	      0.79327619	      0.73442165	     12.70372378	     -0.55567583	     -0.31843142	      1.68810751	     -0.37930875	      0.00000000	     -0.00000000	     12.74741526	     -0.68576489	     -0.23646699	      1.76703140	     -0.35909766	      0.00000000	     -0.00000000	      0.01000000	      0.01000000	      0.09596503	      0.01000000	      0.01000000	      0.18050286	      0.01000000	      0.01000000	      0.01000000	      0.10974055	      0.01000000	      0.01000000	      0.05693283	      0.01000000	      0.06500318	      0.01000000	      0.04718203	      0.01000000	      0.05512808	      0.01000000	      0.06456812	      0.01000000	      0.05575675	      0.01000000	      0.01000000	      0.01000000	      0.01000000	      0.01000000	      0.01000000	      0.01000000	      0.01000000	      0.01000000	      0.04160899	      0.01000000	      0.01000000	      0.01000000	      0.05015111	      0.01000000	      0.05652651	      0.01000000	      0.02593408	      0.01000000	      0.01000000	      0.06617800	      0.01000000	      0.01000000	      0.07345271	      0.01000000	      0.22188608	      0.01000000	      0.05790880	      0.01000000	      0.06338683	      0.01000000	      0.05172069	      0.01000000	      0.04139944	      0.01000000	      0.11938389	      0.01000000	      0.11732898	      0.01000000	      0.11555439	      0.01000000	      0.01000000	      0.09597308	      0.01000000	      0.01000000	      0.18050618	      0.01000000	      0.01000000	      0.01000000	      0.10974128	      0.01000000	      0.01000000	      0.05694696	      0.01000000	      0.06498759	      0.01000000	      0.04717371	      0.01000000	      0.05511999	      0.01000000	      0.06457203	      0.01000000	      0.05576359	      0.01000000	      0.01000000	      0.01000000	      0.01000000	      0.01000000	      0.01000000	      0.01000000	      0.01000000	      0.01000000	      0.04160420	      0.01000000	      0.01000000	      0.01000000	      0.05020126	      0.01000000	      0.05655429	      0.01000000	      0.02593244	      0.01000000	      0.01000000	      0.06617761	      0.01000000	      0.01000000	      0.07345299	      0.01000000	      0.22188772	      0.01000000	      0.05791434	      0.01000000	      0.06338304	      0.01000000	      0.05167399	      0.01000000	      0.04138940	      0.01000000	      0.11938423	      0.01000000	      0.11732929	      0.01000000	      0.11555470
      0.00431084	     20.00000000	      0.00000000	     -0.00000000	      0.25000000	    -15.14455408	     -0.00235550	     -0.00204164	      0.06402288	      0.82021510	      0.00000824	     49.85502648	    -13.31989333	    -10.02049594	     56.44013325	     56.44013325	     18.90384068	     -0.30218043	      0.00000000	     49.85438145	    -13.33403057	    -10.01408585	     56.44150101	     56.44150101	     18.97011872	      0.00000000	      0.00000000	     -0.18513163	      0.00220041	      0.00203915	     56.03433714	     -0.00151754	     89.88565189	      0.11150707	      0.10589234	      0.00000000	     -0.00000000	     56.03445473	     -0.00186571	     89.88602892	      0.11171962	      0.10594677	      0.00000000	     -0.00000000	     -0.00000000	      0.00000000	      0.00000000	     -0.00000000	     70.08966578	     -1.01938807	     -0.87166731	      0.01128011	      0.09927819	      0.00358173	    -86.22328023	      0.00267586	     -9.55284642	    -35.35782293	    -35.35782293	   -574.36764568	   -132.96356289	      0.00000000	    -86.49100700	     -6.14147249	     -6.74534691	    -34.75202057	    -34.75202057	   -545.63232898	      0.00000000	      0.00000000	    -85.57237161	      0.94489765	      0.87377984	     15.78825936	     -0.69044776	     -0.39639093	      2.09781551	     -0.46856036	      0.00000000	     -0.00000000	     15.84263518	     -0.85230613	     -0.29437692	      2.19602303	     -0.44340983	      0.00000000	     -0.00000000	      0.01000000	      0.01000000	      0.09598657	      0.01000000	      0.01000000	      0.18044721	      0.01000000	      0.01000000	      0.01000000	      0.10971001	      0.01000000	      0.01000000	      0.05714688	      0.01000000	      0.06526825	      0.01000000	      0.04717934	      0.01000000	      0.05510823	      0.01000000	      0.06440364	      0.01000000	      0.05560819	      0.01000000	      0.01000000	      0.01000000	      0.01000000	      0.01000000	      0.01000000	      0.01000000	      0.01000000	      0.01000000	      0.04159663	      0.01000000	      0.01000000	      0.01000000	      0.05008899	      0.01000000	      0.05647589	      0.01000000	      0.02592547	      0.01000000	      0.01000000	      0.06619363	      0.01000000	      0.01000000	      0.07343520	      0.01000000	      0.22184637	      0.01000000	      0.05775247	      0.01000000	      0.06342312	      0.01000000	      0.05203605	      0.01000000	      0.04139229	      0.01000000	      0.11937150	      0.01000000	      0.11731753	      0.01000000	      0.11554315	      0.01000000	      0.01000000	      0.09600029	      0.01000000	      0.01000000	      0.18045272	      0.01000000	      0.01000000	      0.01000000	      0.10971131	      0.01000000	      0.01000000	      0.05717088	      0.01000000	      0.06524242	      0.01000000	      0.04716390	      0.01000000	      0.05509249	      0.01000000	      0.06441083	      0.01000000	      0.05562113	      0.01000000	      0.01000000	      0.01000000	      0.01000000	      0.01000000	      0.01000000	      0.01000000	      0.01000000	      0.01000000	      0.04158862	      0.01000000	      0.01000000	      0.01000000	      0.05018101	      0.01000000	      0.05653129	      0.01000000	      0.02592243	      0.01000000	      0.01000000	      0.06619284	      0.01000000	      0.01000000	      0.07343571	      0.01000000	      0.22184905	      0.01000000	      0.05776155	      0.01000000	      0.06341525	      0.01000000	      0.05196086	      0.01000000	      0.04137329	      0.01000000	      0.11937206	      0.01000000	      0.11731804	      0.01000000	      0.11554366
      0.00551430	     20.00000000	      0.00000000	     -0.00000000	      0.25000000	    -15.04853191	     -0.00370931	     -0.00319120	      0.06403878	      0.82035095	      0.00001300	     49.73647841	    -13.31990654	    -10.03364335	     56.39083241	     56.39083241	     18.13000825	     -0.47999166	      0.00000000	     49.73548611	    -13.34221620	    -10.02347643	     56.39301251	     56.39301251	     18.23445171	      0.00000000	      0.00000000	     -0.30229089	      0.00345030	      0.00319422	     56.05589649	     -0.00246038	     89.88510968	      0.11437164	      0.10525721	      0.00000000	     -0.00000000	     56.05608830	     -0.00302942	     89.88562596	      0.11471822	      0.10534596	      0.00000000	     -0.00000000	     -0.00000000	      0.00000000	     -0.00000000	     -0.00000000	     89.47540722	     -1.22515113	     -1.03324118	      0.01520838	      0.12644421	      0.00431802	   -110.83654274	     -0.02391771	    -12.30766045	    -46.70223701	    -46.70223701	   -709.65319241	   -161.94465288	      0.00000000	   -111.14344557	     -7.43001059	     -8.88500453	    -45.96079384	    -45.96079384	   -675.11874267	      0.00000000	     -0.00000000	   -109.10594669	      1.12669799	      1.04075204	     20.02812913	     -0.87596024	     -0.50463699	      2.66112486	     -0.58505898	      0.00000000	      0.00000000	     20.09699593	     -1.08085850	     -0.37542320	      2.78546798	     -0.55321277	     -0.00000000	     -0.00000000	      0.01000000	      0.01000000	      0.09602750	      0.01000000	      0.01000000	      0.18034378	      0.01000000	      0.01000000	      0.01000000	      0.10964945	      0.01000000	      0.01000000	      0.05753646	      0.01000000	      0.06574249	      0.01000000	      0.04717353	      0.01000000	      0.05506568	      0.01000000	      0.06407948	      0.01000000	      0.05530737	      0.01000000	      0.01000000	      0.01000000	      0.01000000	      0.01000000	      0.01000000	      0.01000000	      0.01000000	      0.01000000	      0.04157343	      0.01000000	      0.01000000	      0.01000000	      0.04997251	      0.01000000	      0.05636860	      0.01000000	      0.02590724	      0.01000000	      0.01000000	      0.06622912	      0.01000000	      0.01000000	      0.07339927	      0.01000000	      0.22177397	      0.01000000	      0.05747135	      0.01000000	      0.06350483	      0.01000000	      0.05259216	      0.01000000	      0.04137733	      0.01000000	      0.11934780	      0.01000000	      0.11729549	      0.01000000	      0.11552174	      0.01000000	      0.01000000	      0.09605130	      0.01000000	      0.01000000	      0.18035318	      0.01000000	      0.01000000	      0.01000000	      0.10965190	      0.01000000	      0.01000000	      0.05757789	      0.01000000	      0.06569856	      0.01000000	      0.04714310	      0.01000000	      0.05503241	      0.01000000	      0.06409260	      0.01000000	      0.05533171	      0.01000000	      0.01000000	      0.01000000	      0.01000000	      0.01000000	      0.01000000	      0.01000000	      0.01000000	      0.01000000	      0.04155965	      0.01000000	      0.01000000	      0.01000000	      0.05014088	      0.01000000	      0.05648240	      0.01000000	      0.02590118	      0.01000000	      0.01000000	      0.06622735	      0.01000000	      0.01000000	      0.07340027	      0.01000000	      0.22177849	      0.01000000	      0.05748661	      0.01000000	      0.06348832	      0.01000000	      0.05246782	      0.01000000	      0.04133829	      0.01000000	      0.11934877	      0.01000000	      0.11729638	      0.01000000	      0.11552262
      0.00671776	     20.00000000	      0.00000000	     -0.00000000	      0.25000000	    -14.92921375	     -0.00529144	     -0.00451490	      0.06405964	      0.82051936	      0.00001858	     49.58812041	    -13.31994825	    -10.05014977	     56.32740913	     56.32740913	     17.20078621	     -0.69050662	      0.00000000	     49.58674289	    -13.35183459	    -10.03553438	     56.33055395	     56.33055395	     17.34979553	      0.00000000	      0.00000000	     -0.44768711	      0.00489874	      0.00453166	     56.08251409	     -0.00362484	     89.88443710	      0.11790847	      0.10449001	      0.00000000	     -0.00000000	     56.08279719	     -0.00446543	     89.88512468	      0.11841986	      0.10462098	      0.00000000	     -0.00000000	     -0.00000000	      0.00000000	     -0.00000000	     -0.00000000	    108.81045256	     -1.39891828	     -1.16110329	      0.01951655	      0.15340170	      0.00494265	   -135.77377855	     -0.04375716	    -15.13755338	    -58.83088370	    -58.83088370	   -832.49529445	   -187.30233092	      0.00000000	   -136.10463722	     -8.52179376	    -11.18143973	    -57.97254464	    -57.97254464	   -793.12666724	      0.00000000	      0.00000000	   -132.50426345	      1.27492219	      1.17692592	     24.19539083	     -1.05881904	     -0.61328776	      3.21519829	     -0.68704778	      0.00000000	     -0.00000000	     24.27813485	     -1.30486565	     -0.45801587	      3.36454405	     -0.64879519	      0.00000000	      0.00000000	      0.01000000	      0.01000000	      0.09608138	      0.01000000	      0.01000000	      0.18020987	      0.01000000	      0.01000000	      0.01000000	      0.10956678	      0.01000000	      0.01000000	      0.05802111	      0.01000000	      0.06632798	      0.01000000	      0.04716483	      0.01000000	      0.05500263	      0.01000000	      0.06365624	      0.01000000	      0.05490853	      0.01000000	      0.01000000	      0.01000000	      0.01000000	      0.01000000	      0.01000000	      0.01000000	      0.01000000	      0.01000000	      0.04154314	      0.01000000	      0.01000000	      0.01000000	      0.04982619	      0.01000000	      0.05622162	      0.01000000	      0.02588047	      0.01000000	      0.01000000	      0.06628492	      0.01000000	      0.01000000	      0.07334833	      0.01000000	      0.22168210	      0.01000000	      0.05711908	      0.01000000	      0.06362217	      0.01000000	      0.05327337	      0.01000000	      0.04135558	      0.01000000	      0.11931612	      0.01000000	      0.11726588	      0.01000000	      0.11549319	      0.01000000	      0.01000000	      0.09611730	      0.01000000	      0.01000000	      0.18022400	      0.01000000	      0.01000000	      0.01000000	      0.10957075	      0.01000000	      0.01000000	      0.05808415	      0.01000000	      0.06626156	      0.01000000	      0.04711237	      0.01000000	      0.05494372	      0.01000000	      0.06367655	      0.01000000	      0.05494654	      0.01000000	      0.01000000	      0.01000000	      0.01000000	      0.01000000	      0.01000000	      0.01000000	      0.01000000	      0.01000000	      0.04152235	      0.01000000	      0.01000000	      0.01000000	      0.05008686	      0.01000000	      0.05641169	      0.01000000	      0.02587009	      0.01000000	      0.01000000	      0.06628163	      0.01000000	      0.01000000	      0.07335003	      0.01000000	      0.22168887	      0.01000000	      0.05714194	      0.01000000	      0.06359519	      0.01000000	      0.05309000	      0.01000000	      0.04128599	      0.01000000	      0.11931760	      0.01000000	      0.11726726	      0.01000000	      0.11549453
